<svg width="31" height="31" viewBox="0 0 31 31" fill="none" xmlns="http://www.w3.org/2000/svg">
<g clip-path="url(#clip0_1_1170)">
<path d="M24.554 0.764648C26.1034 0.764648 27.4283 1.31478 28.5286 2.41504C29.6288 3.5153 30.179 4.84017 30.179 6.38965V25.1396C30.179 26.6891 29.6288 28.014 28.5286 29.1143C27.4283 30.2145 26.1034 30.7646 24.554 30.7646H20.8821V19.1436H24.7688L25.3547 14.6123H20.8821V11.7217C20.8821 10.9925 21.0351 10.4456 21.3411 10.0811C21.6471 9.71647 22.2428 9.53418 23.1282 9.53418L25.511 9.51465V5.47168C24.6907 5.35449 23.5318 5.2959 22.0344 5.2959C20.2636 5.2959 18.8476 5.81673 17.7864 6.8584C16.7252 7.90006 16.1946 9.37142 16.1946 11.2725V14.6123H12.2883V19.1436H16.1946V30.7646H5.80396C4.25448 30.7646 2.92961 30.2145 1.82935 29.1143C0.729085 28.014 0.178955 26.6891 0.178955 25.1396V6.38965C0.178955 4.84017 0.729085 3.5153 1.82935 2.41504C2.92961 1.31478 4.25448 0.764648 5.80396 0.764648H24.554Z" fill="black"/>
</g>
<defs>
<clipPath id="clip0_1_1170">
<rect width="30" height="30" fill="white" transform="translate(0.178955 0.764648)"/>
</clipPath>
</defs>
</svg>
