<?xml version="1.0" encoding="utf-8"?>
<!-- Generator: Adobe Illustrator 22.0.0, SVG Export Plug-In . SVG Version: 6.00 Build 0)  -->
<svg version="1.1" id="Layer_1" xmlns="http://www.w3.org/2000/svg" xmlns:xlink="http://www.w3.org/1999/xlink" x="0px" y="0px"
	 viewBox="0 0 91 92" style="enable-background:new 0 0 91 92;" xml:space="preserve">
<style type="text/css">
	.st0{fill:#0CD6A5;}
	.st1{fill:#FFFFFF;}
</style>
<path class="st0" d="M45.3,91.6c24.9,0,45-20.4,45-45.5c0-25.1-20.1-45.5-45-45.5s-45,20.4-45,45.5C0.3,71.2,20.5,91.6,45.3,91.6z"
	/>
<g>
	<path class="st1" d="M64.7,30.5c-0.2-0.6-0.6-1-1.1-1.3C63,29,62.4,29,61.9,29.1L54,31.8c-0.2,0.1-0.3,0.1-0.5,0l-7.9-2.7
		C45.4,29,45.1,29,44.8,29c-0.3,0-0.6,0.1-0.8,0.2c-0.3,0.1-0.5,0.3-0.7,0.5c-0.2,0.2-0.3,0.5-0.4,0.7c-0.1,0.3-0.1,0.6-0.1,0.9
		c0,0.3,0.1,0.6,0.2,0.8s0.3,0.5,0.5,0.7c0.2,0.2,0.5,0.3,0.8,0.4l7.9,2.7c1.1,0.4,2.3,0.4,3.4,0l7.8-2.7c0.5-0.2,1-0.6,1.2-1.1
		C64.8,31.7,64.8,31.1,64.7,30.5z M44.1,49.8l-8.1,2.8L28,49.8c-0.5-0.2-1.2-0.2-1.7,0.1c-0.5,0.3-0.9,0.7-1.1,1.3s-0.2,1.2,0.1,1.7
		c0.3,0.5,0.7,0.9,1.3,1.1l7.3,2.5v8c0,0.6,0.2,1.2,0.6,1.6c0.4,0.4,1,0.7,1.6,0.7s1.2-0.2,1.6-0.7c0.4-0.4,0.7-1,0.7-1.6v-8
		l4.3-1.5c0.5-1.9,1.4-3.7,2.6-5.3C44.8,49.7,44.5,49.7,44.1,49.8z M20.7,48c0.1-0.1,0.2-0.2,0.4-0.3L33.8,43c1.5-0.5,3.1-0.5,4.6,0
		l9.8,3.6c1.6-1.2,3.3-2.2,5.2-2.7c-0.2-0.1-0.5-0.3-0.8-0.4l-12.8-4.7c-2.5-0.9-5.2-0.9-7.7,0l-12.7,4.7c-1,0.4-1.8,1-2.4,1.9
		c-0.6,0.9-0.9,1.9-0.9,3v16.8c0,1.1,0.3,2.1,0.9,3c0.6,0.9,1.5,1.5,2.4,1.9l12.7,4.7c2.5,0.9,5.2,0.9,7.7,0l7.8-2.9
		c-1.2-1-2.3-2.2-3.1-3.6l-6.2,2.3c-1.5,0.5-3.1,0.5-4.6,0L21,65.9c-0.1-0.1-0.3-0.2-0.4-0.3c-0.1-0.1-0.1-0.3-0.1-0.4V48.4
		C20.5,48.3,20.6,48.1,20.7,48z M72.8,24.1c-0.6-0.9-1.5-1.5-2.4-1.9l-12.8-4.7c-2.5-0.9-5.2-0.9-7.7,0l-12.7,4.7
		c-1,0.4-1.8,1-2.4,1.9c-0.6,0.9-0.9,1.9-0.9,3v8.3c1.5-0.2,3-0.2,4.4,0v-8.3c0-0.1,0-0.3,0.1-0.4c0.1-0.1,0.2-0.2,0.4-0.3l12.7-4.7
		c1.5-0.5,3.1-0.5,4.6,0l12.7,4.7c0.1,0.1,0.3,0.2,0.4,0.3c0.1,0.1,0.1,0.3,0.1,0.4v20.5c2.1,1.9,3.6,4.4,4.4,7V27.1
		C73.8,26,73.5,25,72.8,24.1z"/>
	<path class="st0" d="M36.1,75.9c-1.4,0-2.7-0.2-4-0.7l-12.7-4.7c-1.1-0.4-2-1.1-2.7-2.1c-0.7-1-1-2.1-1-3.2V48.4
		c0-1.2,0.4-2.3,1-3.2c0.7-0.9,1.6-1.7,2.7-2.1L32,38.4c2.6-1,5.4-1,8,0l12.8,4.7c0.3,0.1,0.6,0.3,0.9,0.4l0.9,0.6l-1,0.3
		c-1.8,0.6-3.5,1.5-5,2.6l-0.2,0.2l-10.1-3.7c-1.4-0.5-2.9-0.5-4.3,0l-12.7,4.7c0,0-0.1,0-0.1,0.1l0,0c0,0,0,0.1,0,0.1v16.8
		c0,0.1,0,0.1,0,0.1c0,0,0.1,0.1,0.1,0.1l12.7,4.7c1.4,0.5,2.9,0.5,4.3,0l6.6-2.4L45,68c0.8,1.3,1.8,2.4,3,3.5l0.7,0.6l-8.6,3.2
		C38.8,75.7,37.4,75.9,36.1,75.9z M36.1,38.6c-1.2,0-2.5,0.2-3.7,0.7L19.6,44c-0.9,0.3-1.7,0.9-2.2,1.7c-0.6,0.8-0.8,1.7-0.8,2.7
		v16.8c0,1,0.3,1.9,0.8,2.7c0.5,0.8,1.3,1.4,2.2,1.7l12.7,4.7c2.4,0.9,5,0.9,7.3,0l7-2.6c-0.9-0.8-1.7-1.8-2.4-2.8L38.5,71
		c-1.6,0.6-3.4,0.6-5,0l-12.7-4.7c-0.3-0.1-0.4-0.3-0.6-0.4c-0.2-0.2-0.2-0.5-0.2-0.7V48.4c0-0.3,0.1-0.5,0.2-0.7
		c0.1-0.2,0.3-0.4,0.6-0.4l12.7-4.7c1.6-0.6,3.4-0.6,5,0l9.6,3.5c1.2-0.9,2.5-1.7,3.9-2.2l-12.3-4.6C38.5,38.9,37.3,38.6,36.1,38.6z
		 M36.1,67.3c-0.7,0-1.4-0.3-1.9-0.8c-0.5-0.5-0.8-1.2-0.8-1.9v-7.6l-7-2.4c-0.7-0.2-1.2-0.7-1.6-1.4c-0.3-0.6-0.4-1.4-0.1-2.1
		c0.2-0.7,0.7-1.2,1.4-1.6c0.6-0.3,1.4-0.4,2.1-0.1l7.9,2.7l7.9-2.7c0.4-0.1,0.8-0.2,1.3-0.1l0.8,0.1L45.6,50
		c-1.2,1.6-2,3.3-2.5,5.2L43,55.5l-4.2,1.5v7.6c0,0.7-0.3,1.4-0.8,1.9C37.5,67,36.8,67.3,36.1,67.3z M27.2,50.2
		c-0.3,0-0.5,0.1-0.7,0.2c-0.4,0.2-0.7,0.6-0.9,1c-0.2,0.4-0.1,0.9,0.1,1.3c0.2,0.4,0.6,0.7,1,0.9l7.7,2.7v8.3
		c0,0.5,0.2,0.9,0.5,1.2c0.7,0.6,1.8,0.7,2.4,0c0.3-0.3,0.5-0.8,0.5-1.2v-8.3l4.4-1.5c0.4-1.5,1.1-3,2-4.3l-8.1,2.8l-8.3-2.9
		C27.6,50.3,27.4,50.2,27.2,50.2z M74.3,57.8l-1-3.1c-0.8-2.6-2.3-5-4.3-6.8l-0.2-0.1V27.1c0,0,0-0.1,0-0.1c0,0-0.1-0.1-0.1-0.1
		l-12.7-4.7c-1.4-0.5-2.9-0.5-4.3,0l-12.7,4.7c0,0-0.1,0.1-0.1,0.1c0,0,0,0.1,0,0.1v8.8l-0.6-0.1c-1.4-0.2-2.9-0.2-4.3,0l-0.6,0.1
		v-8.8c0-1.2,0.4-2.3,1-3.2c0.7-1,1.6-1.7,2.7-2.1l12.7-4.7c2.6-1,5.4-1,8,0l12.7,4.7c1.1,0.4,2,1.1,2.7,2.1l0,0c0.7,1,1,2.1,1,3.2
		V57.8z M69.8,47.3c1.4,1.3,2.6,2.9,3.4,4.7V27.1c0-1-0.3-1.9-0.8-2.7c-0.6-0.8-1.3-1.4-2.2-1.7L57.5,18c-2.4-0.9-5-0.9-7.3,0
		l-12.7,4.7c-0.9,0.3-1.7,0.9-2.2,1.7c-0.6,0.8-0.8,1.7-0.8,2.7v7.7c1.1-0.1,2.3-0.1,3.4,0v-7.7c0-0.3,0.1-0.5,0.2-0.7
		c0.2-0.2,0.4-0.4,0.6-0.4l12.7-4.7c1.6-0.6,3.4-0.6,5,0L69,25.9c0.2,0.1,0.4,0.2,0.6,0.4c0.2,0.2,0.2,0.5,0.2,0.7V47.3z M53.8,36.8
		c-0.6,0-1.3-0.1-1.9-0.3l-7.9-2.7c-0.3-0.1-0.6-0.3-0.9-0.5c-0.3-0.2-0.5-0.5-0.6-0.8c-0.2-0.3-0.2-0.7-0.3-1c0-0.4,0-0.7,0.1-1.1
		c0.1-0.3,0.3-0.6,0.5-0.9c0.2-0.3,0.5-0.5,0.8-0.6c0.3-0.2,0.7-0.2,1-0.3c0.4,0,0.7,0,1.1,0.1l7.9,2.7c0,0,0.1,0,0.2,0l7.8-2.7
		c0.7-0.2,1.4-0.2,2.1,0.2c0.6,0.3,1.1,0.9,1.3,1.5c0.2,0.7,0.2,1.4-0.1,2c-0.3,0.6-0.8,1.1-1.5,1.4l-7.9,2.7
		C55.1,36.7,54.4,36.8,53.8,36.8z M44.9,29.5C44.9,29.5,44.9,29.5,44.9,29.5c-0.3,0-0.5,0.1-0.7,0.2c-0.2,0.1-0.4,0.2-0.5,0.4
		c-0.1,0.2-0.3,0.4-0.3,0.6c-0.1,0.2-0.1,0.4-0.1,0.7c0,0.2,0.1,0.5,0.2,0.7c0.1,0.2,0.2,0.4,0.4,0.5c0.2,0.1,0.4,0.3,0.6,0.3
		l7.9,2.7c1,0.3,2.1,0.3,3.1,0l7.8-2.7c0.4-0.2,0.7-0.5,0.9-0.9c0.2-0.4,0.2-0.9,0.1-1.3l0,0c-0.1-0.4-0.5-0.8-0.9-1
		c-0.4-0.2-0.9-0.2-1.3-0.1l-7.8,2.7c-0.3,0.1-0.6,0.1-0.8,0l-7.9-2.7C45.4,29.5,45.2,29.5,44.9,29.5z"/>
</g>
<g>
	<path class="st1" d="M69.8,57.1L69.3,57c-0.3-0.1-0.7-0.3-0.9-0.5c-0.3-0.3-0.5-0.5-0.6-0.9c-0.1-0.3-0.2-0.7-0.2-1.1
		c0-0.4,0.1-0.7,0.3-1l0.3-0.5c1.2-2.1-1.2-4.5-3.3-3.3l-0.5,0.3c-0.3,0.2-0.7,0.3-1,0.3c-0.4,0-0.7,0-1.1-0.2
		c-0.3-0.1-0.6-0.4-0.9-0.6c-0.3-0.3-0.4-0.6-0.5-0.9l-0.2-0.6c-0.7-2.3-4-2.3-4.7,0l-0.2,0.6c-0.1,0.3-0.3,0.7-0.5,0.9
		c-0.3,0.3-0.5,0.5-0.9,0.6c-0.3,0.1-0.7,0.2-1.1,0.2c-0.4,0-0.7-0.1-1-0.3l-0.5-0.3c-2.1-1.2-4.5,1.2-3.3,3.3l0.3,0.5
		c0.7,1.4,0,3.1-1.5,3.5l-0.6,0.2c-2.3,0.7-2.3,4,0,4.7l0.6,0.2c0.3,0.1,0.7,0.3,0.9,0.5c0.3,0.2,0.5,0.5,0.6,0.9
		c0.1,0.3,0.2,0.7,0.2,1.1c0,0.4-0.1,0.7-0.3,1L48.4,66c-1.2,2.1,1.2,4.5,3.3,3.3l0.5-0.3c0.3-0.2,0.7-0.3,1-0.3
		c0.4,0,0.7,0,1.1,0.2c0.3,0.1,0.6,0.3,0.9,0.6c0.2,0.3,0.4,0.6,0.5,1l0.2,0.6c0.7,2.3,4,2.3,4.7,0l0.2-0.6c0.1-0.4,0.3-0.7,0.5-1
		c0.2-0.3,0.5-0.5,0.9-0.6c0.3-0.1,0.7-0.2,1.1-0.2c0.4,0,0.7,0.1,1,0.3l0.5,0.3c2.1,1.2,4.5-1.2,3.3-3.3l-0.3-0.5
		c-0.2-0.3-0.3-0.7-0.3-1c0-0.4,0-0.7,0.2-1.1c0.1-0.3,0.4-0.6,0.6-0.9c0.3-0.3,0.6-0.4,0.9-0.5l0.6-0.2
		C72.1,61.1,72.1,57.8,69.8,57.1z M61.7,62.9c-0.9,0.9-2.2,1.4-3.4,1.4c-1.3,0-2.5-0.5-3.5-1.4c-0.9-0.9-1.4-2.2-1.4-3.4
		c0-1.3,0.5-2.5,1.4-3.5c0.9-0.9,2.2-1.4,3.5-1.4c1.3,0,2.5,0.5,3.4,1.4c0.9,0.9,1.4,2.1,1.4,3.4C63.1,60.8,62.6,62,61.7,62.9z"/>
	<path class="st0" d="M58.2,73.3c-1.3,0-2.4-0.8-2.8-2.1l-0.2-0.6c-0.1-0.3-0.2-0.5-0.4-0.8c-0.2-0.2-0.4-0.4-0.7-0.5
		c-0.3-0.1-0.5-0.2-0.8-0.1c-0.3,0-0.6,0.1-0.8,0.2L52,69.7c-1.2,0.6-2.5,0.4-3.5-0.5c-0.9-0.9-1.1-2.3-0.5-3.5l0.3-0.5
		c0.1-0.3,0.2-0.5,0.2-0.8c0-0.3,0-0.6-0.1-0.8c-0.1-0.3-0.3-0.5-0.5-0.7c-0.2-0.2-0.5-0.3-0.7-0.4l-0.6-0.2
		c-1.3-0.4-2.1-1.5-2.1-2.8c0-1.3,0.8-2.4,2.1-2.8l0.6-0.2c0.6-0.2,1-0.6,1.2-1.1s0.2-1.1-0.1-1.7L48,53.2c-0.6-1.2-0.4-2.5,0.5-3.5
		c0.9-0.9,2.3-1.1,3.5-0.5l0.5,0.3c0.3,0.1,0.5,0.2,0.8,0.2c0.3,0,0.6,0,0.8-0.1c0.3-0.1,0.5-0.3,0.7-0.5c0.2-0.2,0.3-0.5,0.4-0.7
		l0.2-0.6c0.4-1.3,1.5-2.1,2.8-2.1c0,0,0,0,0,0c1.3,0,2.4,0.8,2.8,2.1l0.2,0.6c0.1,0.3,0.2,0.5,0.4,0.7c0.2,0.2,0.4,0.4,0.7,0.5
		c0.3,0.1,0.5,0.2,0.8,0.1c0.3,0,0.6-0.1,0.8-0.2l0.5-0.3c1.2-0.6,2.5-0.4,3.5,0.5c0.9,0.9,1.1,2.3,0.5,3.5l-0.3,0.5
		c-0.1,0.3-0.2,0.5-0.2,0.8s0,0.6,0.1,0.8c0.1,0.3,0.3,0.5,0.5,0.7c0.2,0.2,0.5,0.3,0.7,0.4l0.6,0.2c1.3,0.4,2.1,1.5,2.1,2.8
		c0,1.3-0.8,2.4-2.1,2.8l-0.6,0.2c-0.3,0.1-0.5,0.2-0.7,0.4c-0.2,0.2-0.4,0.4-0.5,0.7C68,63.8,68,64.1,68,64.4
		c0,0.3,0.1,0.6,0.2,0.8l0.3,0.5c0.6,1.2,0.4,2.5-0.5,3.5c-0.9,0.9-2.3,1.1-3.5,0.5L64,69.4c-0.3-0.1-0.5-0.2-0.8-0.2
		c-0.3,0-0.6,0-0.8,0.1c-0.3,0.1-0.5,0.3-0.7,0.5c-0.2,0.2-0.3,0.5-0.4,0.8l-0.2,0.6C60.7,72.4,59.6,73.3,58.2,73.3
		C58.3,73.3,58.3,73.3,58.2,73.3z M53.4,68.2c0.4,0,0.8,0.1,1.1,0.2c0.4,0.2,0.8,0.4,1.1,0.7c0.3,0.4,0.5,0.7,0.6,1.2l0.2,0.6
		c0.3,1,1.2,1.4,1.9,1.4c0,0,0,0,0,0c0.7,0,1.5-0.4,1.8-1.4l0.2-0.6c0.1-0.4,0.3-0.8,0.6-1.1c0.3-0.3,0.6-0.6,1.1-0.7
		c0.4-0.2,0.8-0.2,1.3-0.2c0.4,0,0.8,0.1,1.2,0.3l0.5,0.3c0.9,0.5,1.8,0.2,2.3-0.3c0.5-0.5,0.8-1.4,0.3-2.3l-0.3-0.5
		c-0.2-0.4-0.3-0.8-0.4-1.2c0-0.5,0-0.9,0.2-1.3c0.2-0.4,0.4-0.8,0.8-1.1c0.3-0.3,0.7-0.5,1.1-0.6l0.6-0.2c1-0.3,1.4-1.2,1.4-1.8
		c0-0.7-0.4-1.6-1.4-1.9l0,0l-0.6-0.2c-0.4-0.1-0.8-0.3-1.1-0.6c-0.3-0.3-0.6-0.7-0.8-1.1C67,55.3,67,54.9,67,54.5
		c0-0.4,0.1-0.9,0.3-1.2l0.3-0.5c0.5-0.9,0.1-1.8-0.3-2.3c-0.5-0.5-1.4-0.8-2.3-0.3l-0.5,0.3c-0.4,0.2-0.8,0.3-1.2,0.3
		c-0.4,0-0.9,0-1.3-0.2c-0.4-0.2-0.8-0.4-1.1-0.7c-0.3-0.3-0.5-0.7-0.6-1.1L60.1,48c-0.3-1-1.2-1.4-1.8-1.4c0,0,0,0,0,0
		c-0.7,0-1.6,0.4-1.9,1.4l-0.2,0.6c-0.1,0.4-0.3,0.8-0.6,1.1c-0.3,0.3-0.7,0.6-1.1,0.7c-0.4,0.2-0.8,0.2-1.3,0.2
		c-0.4,0-0.9-0.1-1.2-0.3l-0.5-0.3c-0.9-0.5-1.8-0.1-2.3,0.3c-0.5,0.5-0.8,1.4-0.3,2.3l0.3,0.5c0.4,0.8,0.5,1.7,0.1,2.5
		s-1,1.4-1.9,1.7l-0.6,0.2c-1,0.3-1.4,1.2-1.4,1.9c0,0.7,0.4,1.5,1.4,1.8l0.6,0.2c0.4,0.1,0.8,0.3,1.1,0.6c0.3,0.3,0.6,0.6,0.7,1.1
		c0.2,0.4,0.2,0.8,0.2,1.3c0,0.4-0.1,0.8-0.3,1.2l-0.3,0.5c-0.5,0.9-0.2,1.8,0.3,2.3c0.5,0.5,1.4,0.8,2.3,0.3l0.5-0.3
		c0.4-0.2,0.8-0.3,1.3-0.4C53.3,68.2,53.4,68.2,53.4,68.2z M58.3,64.8c-1.4,0-2.8-0.6-3.8-1.6c-1-1-1.6-2.4-1.6-3.8
		c0-1.4,0.6-2.8,1.6-3.8c1-1,2.4-1.6,3.8-1.6c1.4,0,2.8,0.6,3.8,1.6c1,1,1.6,2.4,1.6,3.8c0,1.4-0.6,2.8-1.6,3.8l0,0
		C61,64.3,59.7,64.8,58.3,64.8z M58.3,55.1c-1.2,0-2.3,0.5-3.1,1.3c-0.8,0.8-1.3,1.9-1.3,3.1c0,1.2,0.5,2.3,1.3,3.1
		c0.8,0.8,1.9,1.3,3.1,1.3c1.1,0,2.3-0.5,3.1-1.3l0,0c0.8-0.8,1.3-1.9,1.3-3.1c0-1.2-0.5-2.3-1.3-3.1C60.5,55.5,59.4,55.1,58.3,55.1
		z"/>
</g>
</svg>
