<svg width="69" height="26" viewBox="0 0 69 26" fill="none" xmlns="http://www.w3.org/2000/svg">
<path d="M67.0081 11.4041C63.2639 11.2096 60.2004 9.44287 57.6556 7.62748C57.2504 7.33572 56.8128 7.01154 56.3751 6.68736C55.5971 6.12005 54.8353 5.53655 54.2356 5.16375C53.7493 4.85578 53.0361 4.45056 52.2419 4.28847C51.3018 4.07775 49.9888 4.15879 48.9515 5.22857C48.1573 6.05522 47.9303 7.04396 47.8655 7.74094C47.8007 8.43792 47.8817 9.11869 47.979 9.686C48.1573 10.7234 48.5301 11.9066 48.838 12.9116C48.8542 12.9764 48.8867 13.0574 48.9029 13.1223C49.2595 14.2731 49.5512 15.2781 49.7133 16.1371C49.7619 16.3803 49.535 16.5748 49.3081 16.5099C48.8218 16.3803 48.2221 16.1695 47.4603 15.8616C44.7372 14.7107 41.2523 12.6684 37.5081 10.464L37.3946 10.3992C33.7314 8.24342 29.8251 5.94176 26.6157 4.64506C25.0435 4.01291 23.3415 3.47803 21.7693 3.47803C20.9588 3.47803 20.0349 3.62389 19.1597 4.09395C18.2358 4.59642 17.5388 5.35825 17.1173 6.31457C16.4528 7.78958 16.5825 9.36182 16.7608 10.4964C16.9391 11.6148 17.2794 12.7981 17.5712 13.7706C17.5874 13.8193 17.6036 13.8679 17.6198 13.9165C17.6522 14.0138 17.6847 14.111 17.7009 14.2083C17.7495 14.4028 17.555 14.5649 17.3767 14.4676C17.3281 14.4352 17.2794 14.419 17.2308 14.3866C16.777 14.1272 16.2583 13.8192 15.6586 13.4951C12.3357 11.6311 7.52173 9.26458 1.36237 9.13491H0.357422V14.7107H1.26511C6.06293 14.8242 9.92063 16.6558 13.0003 18.3739C13.3893 18.5847 13.7945 18.8278 14.1998 19.0547C15.2695 19.6706 16.3393 20.2866 17.1984 20.6756C17.8143 20.9511 18.641 21.2591 19.5487 21.2915C20.6022 21.324 21.7531 20.9836 22.6121 19.9786C23.8602 18.536 23.763 16.7044 23.6333 15.7157C23.4874 14.6135 23.147 13.3978 22.8553 12.4091L22.8391 12.3605C22.5311 11.2745 22.2718 10.383 22.1421 9.60495C22.1097 9.39424 22.0935 9.23215 22.0773 9.10248C22.6121 9.16732 23.4226 9.39424 24.5572 9.84809C27.3127 10.9665 30.8462 13.025 34.6229 15.2456C34.7363 15.3105 34.866 15.3915 34.9795 15.4564C38.5292 17.5473 42.2734 19.7517 45.3369 21.0484C46.893 21.6968 48.5625 22.2478 50.1023 22.2965C50.8965 22.3127 51.8204 22.1992 52.6957 21.7616C53.6358 21.2915 54.349 20.5135 54.7705 19.541C55.435 18.0173 55.2729 16.3478 55.0622 15.1808C54.8839 14.2245 54.6084 13.2195 54.349 12.3118C54.3328 12.247 54.4139 12.1822 54.4625 12.2308C57.2504 14.2083 61.3675 16.7369 66.6839 16.9962C67.2026 17.0286 67.6727 17.0286 68.0293 17.0124V11.4366C67.8024 11.4203 67.4296 11.4204 67.0081 11.4041ZM18.2682 16.8179C18.2682 16.8179 18.2682 16.8017 18.2682 16.7855C18.2682 16.8179 18.2682 16.8179 18.2682 16.8179Z" fill="#1F1F1F"/>
<path d="M27.1499 25.9916C28.8843 25.9916 30.2782 24.5652 30.2782 22.8146C30.2782 21.0479 28.8681 19.6377 27.1499 19.6377C25.4318 19.6377 24.0216 21.0641 24.0216 22.8146C24.0054 24.5652 25.4156 25.9916 27.1499 25.9916Z" fill="#1F1F1F"/>
<path d="M3.51893 6.36264C5.25327 6.36264 6.64723 4.93627 6.64723 3.18572C6.64723 1.43516 5.23706 0.00878906 3.51893 0.00878906C1.80079 0.00878906 0.390625 1.43516 0.390625 3.18572C0.390625 4.93627 1.80079 6.36264 3.51893 6.36264Z" fill="#1F1F1F"/>
<path d="M64.9488 25.9916C66.6831 25.9916 68.0771 24.5652 68.0771 22.8146C68.0771 21.0479 66.6669 19.6377 64.9488 19.6377C63.2144 19.6377 61.8205 21.0641 61.8205 22.8146C61.8042 24.5652 63.2144 25.9916 64.9488 25.9916Z" fill="#1F1F1F"/>
<path d="M34.476 25.9916C36.2103 25.9916 37.6043 24.5652 37.6043 22.8146C37.6043 21.0641 36.1941 19.6377 34.476 19.6377C32.7416 19.6377 31.3477 21.0641 31.3477 22.8146C31.3477 24.5652 32.7578 25.9916 34.476 25.9916Z" fill="#1F1F1F"/>
</svg>
