<svg width="31" height="31" viewBox="0 0 31 31" fill="none" xmlns="http://www.w3.org/2000/svg">
<g clip-path="url(#clip0_1_1172)">
<path d="M6.30698 0.772095C3.07547 0.772095 0.430664 3.41683 0.430664 6.64841V24.8836C0.430664 28.1151 3.07541 30.759 6.30698 30.759H24.5422C27.7738 30.759 30.4176 28.1152 30.4176 24.8836V6.64841C30.4176 3.41689 27.7738 0.772095 24.5422 0.772095H6.30698ZM7.78496 5.72054C9.3344 5.72054 10.2888 6.73772 10.3183 8.07479C10.3183 9.38234 9.33434 10.4281 7.75499 10.4281H7.72592C6.20597 10.4281 5.22356 9.3824 5.22356 8.07479C5.22356 6.73775 6.2357 5.72054 7.78493 5.72054H7.78496ZM21.1374 11.9698C24.1172 11.9698 26.3511 13.9175 26.3511 18.1029V25.9164H21.8225V18.6268C21.8225 16.795 21.1671 15.5452 19.5282 15.5452C18.2771 15.5452 17.5313 16.3876 17.2039 17.2013C17.0843 17.4924 17.0549 17.899 17.0549 18.3063V25.9164H12.5263C12.5263 25.9164 12.5857 13.568 12.5263 12.2894H17.0558V14.2191C17.6576 13.2906 18.7341 11.9698 21.1374 11.9698V11.9698ZM5.49068 12.2904H10.0193V25.9164H5.49068V12.2904Z" fill="black"/>
</g>
<defs>
<clipPath id="clip0_1_1172">
<rect width="30" height="30" fill="white" transform="translate(0.425049 0.764648)"/>
</clipPath>
</defs>
</svg>
