<svg width="31" height="31" viewBox="0 0 31 31" fill="none" xmlns="http://www.w3.org/2000/svg">
<g clip-path="url(#clip0_1_1168)">
<path d="M25.6711 10.1787C24.942 10.5042 24.1542 10.7256 23.3079 10.8428C24.1933 10.3219 24.7987 9.56022 25.1243 8.55762C24.2779 9.05241 23.4055 9.38444 22.5071 9.55371C21.7128 8.69434 20.7167 8.26465 19.5188 8.26465C18.386 8.26465 17.4192 8.66504 16.6184 9.46582C15.8176 10.2666 15.4172 11.2334 15.4172 12.3662C15.4172 12.7438 15.4498 13.0563 15.5149 13.3037C13.8352 13.2126 12.2597 12.7894 10.7883 12.0342C9.31698 11.279 8.06698 10.2699 7.03833 9.00684C6.66073 9.65788 6.47192 10.348 6.47192 11.0771C6.47192 12.5615 7.06437 13.7008 8.24927 14.4951C7.63729 14.4821 6.98625 14.3128 6.29614 13.9873V14.0264C6.29614 15.0029 6.62166 15.8721 7.27271 16.6338C7.92375 17.3955 8.72453 17.8675 9.67505 18.0498C9.29744 18.154 8.96541 18.2061 8.67896 18.2061C8.50968 18.2061 8.25578 18.18 7.91724 18.1279C8.19067 18.9482 8.6757 19.6253 9.37231 20.1592C10.0689 20.693 10.8599 20.9665 11.7454 20.9795C10.2349 22.1514 8.53573 22.7373 6.64771 22.7373C6.30916 22.7373 5.98364 22.7178 5.67114 22.6787C7.59823 23.9027 9.69458 24.5146 11.9602 24.5146C13.4185 24.5146 14.7857 24.2835 16.0618 23.8213C17.3378 23.359 18.4316 22.7406 19.343 21.9658C20.2545 21.1911 21.039 20.2992 21.6965 19.29C22.3541 18.2809 22.8424 17.2262 23.1614 16.126C23.4804 15.0257 23.6399 13.9287 23.6399 12.835C23.6399 12.6006 23.6334 12.4248 23.6204 12.3076C24.4407 11.7217 25.1243 11.012 25.6711 10.1787ZM30.6711 6.38965V25.1396C30.6711 26.6891 30.121 28.014 29.0208 29.1143C27.9205 30.2145 26.5956 30.7646 25.0461 30.7646H6.29614C4.74666 30.7646 3.42179 30.2145 2.32153 29.1143C1.22127 28.014 0.671143 26.6891 0.671143 25.1396V6.38965C0.671143 4.84017 1.22127 3.5153 2.32153 2.41504C3.42179 1.31478 4.74666 0.764648 6.29614 0.764648H25.0461C26.5956 0.764648 27.9205 1.31478 29.0208 2.41504C30.121 3.5153 30.6711 4.84017 30.6711 6.38965Z" fill="black"/>
</g>
<defs>
<clipPath id="clip0_1_1168">
<rect width="30" height="30" fill="white" transform="translate(0.671143 0.764648)"/>
</clipPath>
</defs>
</svg>
