<svg width="91" height="92" viewBox="0 0 91 92" fill="none" xmlns="http://www.w3.org/2000/svg">
<path d="M45.666 91.5952C70.5188 91.5952 90.666 71.2077 90.666 46.0584C90.666 20.909 70.5188 0.521484 45.666 0.521484C20.8132 0.521484 0.666016 20.909 0.666016 46.0584C0.666016 71.2077 20.8132 91.5952 45.666 91.5952Z" fill="#FF93A2"/>
<path fill-rule="evenodd" clip-rule="evenodd" d="M45.502 68.1667C57.4687 68.1667 67.1686 58.4668 67.1686 46.5C67.1686 34.5332 57.4687 24.8333 45.502 24.8333C33.5352 24.8333 23.8353 34.5332 23.8353 46.5C23.8353 58.4668 33.5352 68.1667 45.502 68.1667ZM45.502 70.875C58.9637 70.875 69.877 59.9618 69.877 46.5C69.877 33.0382 58.9637 22.125 45.502 22.125C32.0402 22.125 21.127 33.0382 21.127 46.5C21.127 59.9618 32.0402 70.875 45.502 70.875ZM35.6093 51.9166C37.7151 57.1058 41.5947 60.0416 45.5015 60.0416C49.4096 60.0416 53.288 57.1058 55.3937 51.9166H35.6093ZM45.5015 62.7499C40.0334 62.7499 35.2938 58.6224 32.9646 52.5937C32.9419 52.5355 32.9193 52.4773 32.8969 52.419C32.293 50.8062 33.5849 49.2083 35.3087 49.2083H55.6957C57.4195 49.2083 58.7128 50.8062 58.1061 52.419C58.0842 52.4773 58.0621 52.5355 58.0398 52.5937C55.7092 58.6224 50.9696 62.7499 45.5015 62.7499ZM41.827 42.7747C41.9719 43.3136 42.0248 43.9054 41.8487 44.3902C41.8145 44.4841 41.7599 44.5692 41.6889 44.6396C41.6179 44.7099 41.5322 44.7636 41.4379 44.7969C41.3437 44.8301 41.2433 44.8421 41.1438 44.832C41.0444 44.8218 40.9485 44.7898 40.8629 44.7382C40.5081 44.5242 40.156 44.2507 39.8256 43.9839L39.5615 43.7686C39.3178 43.5682 39.0822 43.3759 38.8384 43.1945C38.1586 42.6853 37.6196 42.4185 37.1525 42.4415C36.6623 42.4659 36.0691 42.8085 35.3081 43.4098C35.0941 43.579 34.8626 43.7713 34.6242 43.9717L34.6024 43.99C34.0831 44.4236 33.5239 44.8906 32.9898 45.2325C32.8941 45.2941 32.7845 45.3306 32.671 45.3386C32.5575 45.3466 32.4438 45.3259 32.3405 45.2784C32.2371 45.2309 32.1474 45.1582 32.0795 45.0668C32.0117 44.9755 31.968 44.8685 31.9525 44.7558C31.8848 44.2615 31.9877 43.644 32.1813 43.0401C32.4023 42.3594 32.7192 41.7138 33.1225 41.1226C33.962 39.8943 35.3243 38.7365 37.1484 38.8124C38.9102 38.8882 40.2142 39.9187 41.001 41.0413C41.3732 41.5677 41.6526 42.154 41.827 42.7747ZM49.0637 42.7747C48.9188 43.3136 48.8647 43.9054 49.0407 44.3902C49.0749 44.4843 49.1295 44.5696 49.2006 44.6401C49.2717 44.7105 49.3576 44.7643 49.452 44.7976C49.5464 44.8309 49.647 44.8428 49.7466 44.8326C49.8462 44.8223 49.9422 44.7901 50.0279 44.7382C50.3896 44.5101 50.7357 44.2581 51.0638 43.9839L51.3292 43.7686C51.573 43.5682 51.8086 43.3759 52.0524 43.1945C52.7308 42.6853 53.2698 42.4185 53.7369 42.4415C54.2285 42.4659 54.8203 42.8085 55.5827 43.4098C55.8131 43.5941 56.041 43.7814 56.2665 43.9717C56.7906 44.4105 57.3593 44.8858 57.901 45.2325C57.9966 45.2938 58.1061 45.33 58.2194 45.3379C58.3327 45.3457 58.4462 45.325 58.5494 45.2775C58.6525 45.23 58.7421 45.1574 58.8098 45.0662C58.8776 44.975 58.9213 44.8683 58.9369 44.7558C59.0047 44.2615 58.9017 43.644 58.7094 43.0401C58.5104 42.4199 58.1935 41.7455 57.7683 41.1226C56.9287 39.8943 55.5651 38.7365 53.7424 38.8124C51.9806 38.8882 50.6752 39.9187 49.8898 41.0413C49.4957 41.606 49.2154 42.2113 49.0637 42.7747Z" fill="white"/>
</svg>
