<?xml version="1.0" encoding="utf-8"?>
<!-- Generator: Adobe Illustrator 22.0.0, SVG Export Plug-In . SVG Version: 6.00 Build 0)  -->
<svg version="1.1" id="Layer_1" xmlns="http://www.w3.org/2000/svg" xmlns:xlink="http://www.w3.org/1999/xlink" x="0px" y="0px"
	 viewBox="0 0 90 92" style="enable-background:new 0 0 90 92;" xml:space="preserve">
<style type="text/css">
	.st0{fill:#88CCFF;}
	.st1{fill:#FFFFFF;}
</style>
<path class="st0" d="M45,91.6c24.9,0,45-20.4,45-45.5C90,20.9,69.9,0.5,45,0.5S0,20.9,0,46.1C0,71.2,20.1,91.6,45,91.6z"/>
<g>
	<path class="st1" d="M49.8,17.1c-8.7,0-15.3,2-19.7,6.2c-4.4,4.2-6.4,10.3-6.4,17.5V43c-1.4,1.3-2.4,3-2.4,5c0,3,2.1,5.1,4.8,6.2
		c0.9,2.8,1.8,5.7,2.9,8.2c1.2,2.7,2.2,4.9,3.6,6.4c1.6,1.7,3.5,3.1,5.7,4c2.1,0.9,4.5,1.4,6.8,1.4s4.7-0.5,6.8-1.4
		c2.1-0.9,4.1-2.3,5.7-4c1.4-1.5,2.4-3.7,3.6-6.4c1.1-2.5,2.1-5.4,3-8.2c2.6-1,4.8-3.2,4.8-6.2c0-2-1-3.7-2.4-5v-2.2
		c0-6.7-1.5-11.5-4.2-14.6c-2.3-2.7-5.4-3.8-8.4-4.1l-1.9-3.7l-0.7-1.3H49.8z M48.3,22l1.6,3.3c0.8,1.6,1.1,2.7,1.1,3.2
		c0,0.5,0,0.3-0.1,0.4c-0.2,0.2-2.2,0.7-4.7,0.8c-2.5,0.1-5.4,0.1-8.1,1.1c-2.7,1-5.1,3.9-5.1,7.7h4.8c0-2.3,0.6-2.7,2.1-3.3
		c1.5-0.6,4.1-0.8,6.7-0.9c2.6-0.1,5.2,0,7.4-1.9c1.1-0.9,1.8-2.6,1.8-4.2c0-0.4-0.1-0.7-0.1-1c1.1,0.5,2.1,1.2,2.8,2.1
		c1.7,2,3.1,5.5,3.1,11.5v4.4l1.2,0.7c0.7,0.4,1.2,1.2,1.2,2.1c0,0.6-0.2,1.2-0.6,1.6c-0.4,0.4-1,0.7-1.5,0.8l-1.6,0.1L59.8,52
		c-0.9,2.8-1.9,5.6-3,8.4c-1.1,2.5-2.3,4.6-2.7,5c-5.1,5.3-13.1,5.3-18.1,0c-0.4-0.4-1.6-2.5-2.7-5c-1.2-2.7-2.2-5.5-3-8.4l-0.4-1.6
		l-1.6-0.1c-0.6,0-1.1-0.3-1.5-0.8c-0.4-0.4-0.6-1-0.6-1.6c0-0.9,0.5-1.7,1.2-2.1l1.2-0.7v-4.4c0-6.4,1.6-11,4.9-14.1
		C36.3,23.9,41.3,22.3,48.3,22L48.3,22z M37.9,45.6c-0.6,0-1.2,0.3-1.7,0.7s-0.7,1-0.7,1.7c0,0.6,0.3,1.2,0.7,1.7s1,0.7,1.7,0.7
		s1.2-0.3,1.7-0.7s0.7-1,0.7-1.7c0-0.6-0.3-1.2-0.7-1.7S38.5,45.6,37.9,45.6z M52.1,45.6c-0.6,0-1.2,0.3-1.7,0.7s-0.7,1-0.7,1.7
		c0,0.6,0.3,1.2,0.7,1.7s1,0.7,1.7,0.7s1.2-0.3,1.7-0.7s0.7-1,0.7-1.7c0-0.6-0.3-1.2-0.7-1.7S52.8,45.6,52.1,45.6z"/>
	<path class="st0" d="M45,74.6c-2.4,0-4.8-0.5-7-1.5c-2.2-1-4.2-2.3-5.8-4.1c-1.4-1.5-2.5-3.6-3.7-6.5c-1.1-2.5-2-5.4-2.8-8
		c-3-1.3-4.8-3.7-4.8-6.5c0-1.9,0.8-3.6,2.4-5.2v-1.9c0-7.8,2.2-13.8,6.5-17.9c4.5-4.2,11.2-6.4,20.1-6.4h1.8l2.5,5.1
		c3.6,0.4,6.4,1.9,8.4,4.2c2.9,3.4,4.3,8.4,4.3,14.9v1.9c1.6,1.6,2.4,3.3,2.4,5.2c0,2.8-1.8,5.3-4.8,6.5c-1,3-2,5.8-2.9,8
		c-1.2,2.8-2.2,5-3.7,6.5c-1.7,1.8-3.6,3.1-5.8,4.1C49.8,74.1,47.4,74.6,45,74.6z M49.8,17.6c-8.6,0-15.1,2.1-19.4,6.1
		c-4.1,3.9-6.2,9.7-6.2,17.2v2.4L24,43.4c-1.5,1.4-2.2,3-2.2,4.6c0,2.5,1.7,4.6,4.4,5.7l0.2,0.1l0.1,0.2c0.8,2.6,1.8,5.6,2.9,8.1
		c1.2,2.8,2.2,4.8,3.5,6.2c1.6,1.7,3.4,3,5.5,3.9c4.2,1.8,9,1.8,13.2,0c2.1-0.9,3.9-2.2,5.5-3.9c1.4-1.4,2.3-3.5,3.5-6.2
		c1-2.2,2-5,3-8.1l0.1-0.2l0.2-0.1c2.8-1.1,4.4-3.2,4.4-5.7c0-1.6-0.7-3.2-2.2-4.6l-0.2-0.1v-2.4c0-6.3-1.4-11.1-4.1-14.3
		c-1.9-2.2-4.6-3.5-8.1-3.9l-0.3,0l-2.5-5H49.8z M45,70C45,70,45,70,45,70c-3.5,0-6.9-1.5-9.4-4.2c-0.5-0.5-1.7-2.8-2.8-5.2
		c-1.2-2.7-2.2-5.6-3.1-8.4l-0.4-1.2l-1.3-0.1c-0.7-0.1-1.4-0.4-1.9-0.9s-0.7-1.2-0.7-2c0-1,0.5-2,1.4-2.5l0.9-0.5v-4.1
		c0-6.5,1.7-11.3,5.1-14.5c3.2-3,8.4-4.6,15.4-4.9l0.3,0l1.8,3.6c0.8,1.7,1.2,2.9,1.2,3.4l0,0.2c0,0.4-0.2,0.6-0.4,0.6
		c-0.6,0.3-2.8,0.8-4.9,0.9c-0.4,0-0.8,0-1.2,0.1c-2.1,0.1-4.5,0.2-6.7,1c-2.1,0.8-4.5,3.1-4.8,6.8h3.7c0.1-2.1,0.8-2.6,2.4-3.2
		c1.6-0.6,4.2-0.8,6.8-0.9c0.3,0,0.6,0,1,0c2.2-0.1,4.3-0.2,6.2-1.7c1-0.9,1.6-2.3,1.6-3.8c0-0.2,0-0.4-0.1-0.7l-0.2-1.2l0.8,0.4
		c1.2,0.5,2.2,1.3,3,2.2c2.1,2.5,3.2,6.5,3.2,11.8V45l0.9,0.5C64,46,64.5,47,64.5,48c0,0.7-0.2,1.4-0.7,2c-0.5,0.5-1.2,0.9-1.9,0.9
		l-1.3,0.1l-0.3,1.2c-0.9,2.9-1.9,5.7-3.1,8.4c-1,2.4-2.3,4.7-2.8,5.2C51.9,68.5,48.5,70,45,70z M48,22.6
		c-6.6,0.3-11.5,1.8-14.4,4.6c-3.2,3-4.7,7.5-4.7,13.7v4.7l-1.4,0.8c-0.6,0.3-0.9,1-0.9,1.6c0,0.5,0.2,0.9,0.5,1.3
		c0.3,0.3,0.7,0.6,1.2,0.6l2,0.1l0.5,1.9c0.9,2.8,1.9,5.6,3,8.3c1.1,2.6,2.3,4.6,2.6,4.9c2.3,2.5,5.4,3.9,8.7,3.9c0,0,0,0,0,0
		c3.3,0,6.3-1.4,8.7-3.9c0.3-0.3,1.5-2.3,2.6-4.9c1.1-2.7,2.2-5.5,3-8.3l0.5-1.9l2-0.1c0.5,0,0.9-0.2,1.2-0.6
		c0.3-0.3,0.5-0.8,0.5-1.3c0-0.7-0.3-1.3-0.9-1.7l-1.4-0.8v-4.7c0-5-1-8.9-3-11.2c-0.5-0.6-1.1-1.1-1.8-1.5c0,0,0,0.1,0,0.1
		c0.1,1.7-0.7,3.5-2,4.6c-2.1,1.8-4.5,1.8-6.8,1.9c-0.3,0-0.6,0-0.9,0c-2.5,0.1-5.1,0.3-6.5,0.9c-1.3,0.5-1.7,0.7-1.8,2.8l0,0.5
		h-5.8l0-0.5c0-4.5,3-7.2,5.4-8.2c2.4-0.9,4.9-1,7.1-1.1c0.4,0,0.8,0,1.2-0.1c2.1-0.1,3.8-0.5,4.3-0.7v0c0-0.3-0.2-1.3-1.1-3
		L48,22.6z M52.1,50.9c-0.8,0-1.5-0.3-2-0.8s-0.8-1.3-0.8-2c0-0.8,0.3-1.5,0.8-2c1.1-1.1,3-1.1,4.1,0c0.5,0.5,0.8,1.3,0.8,2
		c0,0.8-0.3,1.5-0.8,2S52.9,50.9,52.1,50.9z M52.1,46.1c-0.5,0-1,0.2-1.3,0.5c-0.4,0.4-0.5,0.8-0.5,1.3c0,0.5,0.2,1,0.5,1.3
		c0.7,0.7,2,0.7,2.7,0C53.8,49,54,48.5,54,48c0-0.5-0.2-1-0.5-1.3C53.1,46.3,52.6,46.1,52.1,46.1z M37.9,50.9c-0.8,0-1.5-0.3-2-0.8
		c-0.5-0.5-0.8-1.3-0.8-2s0.3-1.5,0.8-2c1.1-1.1,3-1.1,4.1,0c0.5,0.5,0.8,1.3,0.8,2s-0.3,1.5-0.8,2C39.4,50.6,38.6,50.9,37.9,50.9z
		 M37.9,46.1c-0.5,0-1,0.2-1.3,0.5C36.2,47,36,47.5,36,48s0.2,1,0.5,1.3c0.7,0.7,1.9,0.7,2.7,0c0.4-0.4,0.5-0.8,0.5-1.3
		s-0.2-1-0.5-1.3C38.8,46.3,38.4,46.1,37.9,46.1z"/>
</g>
</svg>
