<?xml version="1.0" standalone="no"?>
<!DOCTYPE svg PUBLIC "-//W3C//DTD SVG 20010904//EN"
 "http://www.w3.org/TR/2001/REC-SVG-20010904/DTD/svg10.dtd">
<svg version="1.0" xmlns="http://www.w3.org/2000/svg"
 width="190.000000pt" height="190.000000pt" viewBox="0 0 190.000000 190.000000"
 preserveAspectRatio="xMidYMid meet">
<metadata>
Created by potrace 1.14, written by Peter Selinger 2001-2017
</metadata>
<g transform="translate(0.000000,190.000000) scale(0.100000,-0.100000)"
fill="#000000" stroke="none">
<path d="M29 1281 c-31 -31 -35 -53 -19 -95 24 -64 114 -73 149 -15 56 92 -54
185 -130 110z"/>
<path d="M523 1190 c-64 -38 -82 -126 -49 -232 8 -27 11 -48 8 -48 -4 0 -52
22 -107 50 -106 52 -223 87 -315 92 l-55 3 0 -79 0 -78 59 -4 c70 -5 190 -44
266 -86 117 -66 186 -98 210 -98 32 0 85 32 101 61 18 34 13 118 -10 194 -26
83 -26 85 -1 85 25 0 205 -92 365 -187 245 -146 371 -193 448 -171 77 23 109
95 89 202 -6 33 -10 61 -9 62 1 1 29 -14 62 -33 78 -46 174 -80 252 -88 l62
-6 0 81 c-1 80 -1 80 -27 80 -77 0 -191 51 -302 134 -78 58 -95 66 -139 66
-28 0 -45 -7 -64 -26 -39 -38 -42 -79 -17 -176 13 -45 25 -98 27 -116 l5 -33
-58 26 c-71 31 -214 110 -364 200 -219 132 -360 172 -437 125z"/>
<path d="M707 749 c-43 -25 -54 -106 -18 -142 9 -10 34 -20 54 -24 31 -5 40
-1 68 26 27 28 31 37 26 68 -4 20 -15 46 -26 56 -22 22 -78 31 -104 16z"/>
<path d="M899 731 c-20 -20 -29 -39 -29 -61 0 -37 47 -90 80 -90 36 0 79 29
87 58 11 41 11 45 -6 76 -29 53 -88 60 -132 17z"/>
<path d="M1773 750 c-46 -19 -60 -87 -28 -137 18 -26 74 -39 104 -24 53 29 65
106 23 145 -23 20 -71 28 -99 16z"/>
</g>
</svg>
