<svg width="31" height="31" viewBox="0 0 31 31" fill="none" xmlns="http://www.w3.org/2000/svg">
<g clip-path="url(#clip0_1_1164)">
<path d="M30.6561 7.58515C30.6437 6.94161 30.5921 6.29943 30.5016 5.66215C30.3939 5.0953 30.2108 4.54542 29.9571 4.02715C29.4019 2.9311 28.5119 2.04051 27.4161 1.48465C26.9012 1.23222 26.3549 1.04961 25.7916 0.941648C25.1495 0.849372 24.5023 0.796773 23.8536 0.784148C23.5791 0.773648 23.2236 0.769148 23.0586 0.769148L8.28664 0.764648C8.12164 0.764648 7.76614 0.769148 7.49164 0.779648C6.8481 0.792048 6.20591 0.843644 5.56864 0.934148C5.0018 1.04191 4.45192 1.22503 3.93364 1.47865C2.83766 2.03395 1.94709 2.92399 1.39114 4.01965C1.13878 4.53462 0.95617 5.08093 0.848143 5.64415C0.755447 6.28628 0.702347 6.9335 0.689143 7.58215C0.680143 7.85665 0.674143 8.21215 0.674143 8.37715L0.671143 23.1491C0.671143 23.3141 0.675643 23.6696 0.686143 23.9441C0.698542 24.5877 0.750138 25.2299 0.840642 25.8671C0.94842 26.434 1.13154 26.9839 1.38514 27.5021C1.94044 28.5981 2.83048 29.4887 3.92614 30.0446C4.44113 30.297 4.98743 30.4796 5.55064 30.5876C6.19279 30.6799 6.84002 30.7325 7.48864 30.7451C7.76314 30.7556 8.11864 30.7601 8.28364 30.7601L23.0556 30.7631C23.2206 30.7631 23.5761 30.7586 23.8506 30.7481C24.4942 30.7357 25.1364 30.6841 25.7736 30.5936C26.3405 30.4858 26.8903 30.3027 27.4086 30.0491C28.5052 29.4941 29.3963 28.604 29.9526 27.5081C30.205 26.9932 30.3876 26.4469 30.4956 25.8836C30.5884 25.2415 30.6415 24.5943 30.6546 23.9456C30.6636 23.6711 30.6696 23.3156 30.6696 23.1506L30.6711 8.38015C30.6711 8.21515 30.6666 7.85965 30.6561 7.58515ZM15.9966 26.2001H15.9921C14.2066 26.1998 12.4497 25.7522 10.8816 24.8981L5.21164 26.3846L6.72964 20.8451C5.55432 18.8056 5.0847 16.4353 5.39359 14.1017C5.70248 11.7681 6.77262 9.60164 8.4381 7.93814C10.1036 6.27465 12.2713 5.20708 14.6053 4.90097C16.9393 4.59485 19.309 5.06729 21.3471 6.24504C23.3853 7.42278 24.9779 9.24004 25.8781 11.415C26.7783 13.59 26.9359 16.0013 26.3262 18.2749C25.7166 20.5486 24.3739 22.5576 22.5063 23.9904C20.6387 25.4233 18.3506 26.2 15.9966 26.2001Z" fill="black"/>
<path d="M16.0011 6.61612C14.4128 6.61566 12.8533 7.04074 11.4848 7.84715C10.1164 8.65357 8.98899 9.81187 8.21985 11.2016C7.45072 12.5913 7.06795 14.1618 7.11135 15.7495C7.15475 17.3373 7.62273 18.8845 8.46663 20.2301L8.67813 20.5661L7.77963 23.8451L11.1441 22.9631L11.4681 23.1551C12.8378 23.9663 14.4003 24.3942 15.9921 24.3941H15.9966C18.3543 24.3945 20.6156 23.4583 22.2831 21.7914C23.9505 20.1246 24.8875 17.8636 24.8879 15.5059C24.8883 13.1482 23.9521 10.8869 22.2852 9.21943C20.6183 7.552 18.3573 6.61502 15.9996 6.61462L16.0011 6.61612ZM21.2271 19.3211C21.0305 19.6458 20.7688 19.9263 20.4585 20.145C20.1482 20.3636 19.7961 20.5157 19.4241 20.5916C18.8626 20.6879 18.2863 20.652 17.7411 20.4866C17.2241 20.3255 16.7159 20.1372 16.2186 19.9226C14.3732 18.9965 12.8003 17.6066 11.6541 15.8891C11.0289 15.0941 10.6494 14.1338 10.5621 13.1261C10.5549 12.7102 10.6344 12.2973 10.7956 11.9138C10.9567 11.5303 11.196 11.1846 11.4981 10.8986C11.5874 10.7968 11.6968 10.7145 11.8194 10.6569C11.942 10.5993 12.0752 10.5678 12.2106 10.5641C12.3876 10.5641 12.5661 10.5641 12.7221 10.5731C12.8871 10.5806 13.1061 10.5101 13.3221 11.0321C13.5471 11.5661 14.0811 12.8816 14.1471 13.0151C14.1895 13.0851 14.2137 13.1646 14.2177 13.2463C14.2216 13.328 14.2051 13.4094 14.1696 13.4831C14.1023 13.6436 14.0124 13.7936 13.9026 13.9286C13.7676 14.0846 13.6221 14.2766 13.5021 14.3966C13.3671 14.5301 13.2291 14.6741 13.3836 14.9411C13.7849 15.6282 14.2859 16.252 14.8701 16.7921C15.5041 17.3557 16.2315 17.8045 17.0196 18.1181C17.2866 18.2531 17.4426 18.2291 17.5986 18.0506C17.7546 17.8721 18.2661 17.2706 18.4446 17.0036C18.6231 16.7366 18.8001 16.7816 19.0446 16.8701C19.2891 16.9586 20.6046 17.6051 20.8716 17.7401C21.1386 17.8751 21.3171 17.9396 21.3831 18.0506C21.4563 18.4803 21.4021 18.9219 21.2271 19.3211Z" fill="black"/>
</g>
<defs>
<clipPath id="clip0_1_1164">
<rect width="30" height="30" fill="white" transform="translate(0.671143 0.764648)"/>
</clipPath>
</defs>
</svg>
