<svg width="31" height="31" viewBox="0 0 31 31" fill="none" xmlns="http://www.w3.org/2000/svg">
<path d="M15.425 0.764648C19.5005 0.764648 20.009 0.779648 21.608 0.854648C23.2055 0.929648 24.293 1.18015 25.25 1.55215C26.24 1.93315 27.074 2.44915 27.9081 3.28165C28.6708 4.03149 29.261 4.93853 29.6376 5.93965C30.008 6.89515 30.26 7.98415 30.335 9.58165C30.4056 11.1806 30.425 11.6891 30.425 15.7646C30.425 19.8401 30.41 20.3486 30.335 21.9476C30.26 23.5451 30.008 24.6326 29.6376 25.5896C29.2621 26.5913 28.6717 27.4986 27.9081 28.2477C27.158 29.0101 26.251 29.6003 25.25 29.9771C24.2945 30.3476 23.2055 30.5996 21.608 30.6746C20.009 30.7451 19.5005 30.7646 15.425 30.7646C11.3495 30.7646 10.841 30.7496 9.24205 30.6746C7.64455 30.5996 6.55705 30.3476 5.60005 29.9771C4.59854 29.6014 3.69134 29.0111 2.94205 28.2477C2.17916 27.4979 1.58895 26.5909 1.21255 25.5896C0.840549 24.6341 0.590049 23.5451 0.515049 21.9476C0.444549 20.3486 0.425049 19.8401 0.425049 15.7646C0.425049 11.6891 0.440049 11.1806 0.515049 9.58165C0.590049 7.98265 0.840549 6.89665 1.21255 5.93965C1.5879 4.93792 2.17825 4.03063 2.94205 3.28165C3.69156 2.5185 4.59869 1.92824 5.60005 1.55215C6.55705 1.18015 7.64305 0.929648 9.24205 0.854648C10.841 0.784148 11.3495 0.764648 15.425 0.764648ZM15.425 8.26465C13.4359 8.26465 11.5283 9.05482 10.1217 10.4613C8.71523 11.8679 7.92505 13.7755 7.92505 15.7646C7.92505 17.7538 8.71523 19.6614 10.1217 21.0679C11.5283 22.4745 13.4359 23.2646 15.425 23.2646C17.4142 23.2646 19.3218 22.4745 20.7283 21.0679C22.1349 19.6614 22.925 17.7538 22.925 15.7646C22.925 13.7755 22.1349 11.8679 20.7283 10.4613C19.3218 9.05482 17.4142 8.26465 15.425 8.26465ZM25.175 7.88965C25.175 7.39237 24.9775 6.91545 24.6259 6.56382C24.2742 6.21219 23.7973 6.01465 23.3 6.01465C22.8028 6.01465 22.3259 6.21219 21.9742 6.56382C21.6226 6.91545 21.425 7.39237 21.425 7.88965C21.425 8.38693 21.6226 8.86384 21.9742 9.21547C22.3259 9.5671 22.8028 9.76465 23.3 9.76465C23.7973 9.76465 24.2742 9.5671 24.6259 9.21547C24.9775 8.86384 25.175 8.38693 25.175 7.88965ZM15.425 11.2646C16.6185 11.2646 17.7631 11.7388 18.607 12.5827C19.4509 13.4266 19.925 14.5712 19.925 15.7646C19.925 16.9581 19.4509 18.1027 18.607 18.9466C17.7631 19.7905 16.6185 20.2646 15.425 20.2646C14.2316 20.2646 13.087 19.7905 12.2431 18.9466C11.3992 18.1027 10.925 16.9581 10.925 15.7646C10.925 14.5712 11.3992 13.4266 12.2431 12.5827C13.087 11.7388 14.2316 11.2646 15.425 11.2646Z" fill="black"/>
</svg>
